<mxfile host="65bd71144e" modified="2021-02-27T21:51:18.277Z" agent="5.0 (Windows NT 10.0; Win64; x64) AppleWebKit/537.36 (KHTML, like Gecko) Code/1.53.2 Chrome/87.0.4280.141 Electron/11.2.1 Safari/537.36" version="14.2.4" etag="lsiO4JiK4hgq6WcmAdCM" type="embed">
    <diagram id="bRE8rjI-FmzJDDNjxBNb" name="Page-1">
        <mxGraphModel dx="1204" dy="790" grid="1" gridSize="10" guides="1" tooltips="1" connect="1" arrows="1" fold="1" page="1" pageScale="1" pageWidth="850" pageHeight="1100" math="0" shadow="0">
            <root>
                <mxCell id="0"/>
                <mxCell id="1" parent="0"/>
                <mxCell id="2" value="GESTION DEL CONOCIMIENTO" style="ellipse;whiteSpace=wrap;html=1;aspect=fixed;fillColor=#6a00ff;strokeColor=#3700CC;fontColor=#ffffff;" vertex="1" parent="1">
                    <mxGeometry x="360" y="240" width="120" height="120" as="geometry"/>
                </mxCell>
                <mxCell id="3" value="IDENTIFICAR CONOCIMIENTO" style="shape=step;perimeter=stepPerimeter;whiteSpace=wrap;html=1;fixedSize=1;fillColor=#a20025;strokeColor=#6F0000;fontColor=#ffffff;rotation=0;" vertex="1" parent="1">
                    <mxGeometry x="350" y="80" width="130" height="80" as="geometry"/>
                </mxCell>
                <mxCell id="4" value="ALMACENAR CONOCIMIENTO" style="shape=step;perimeter=stepPerimeter;whiteSpace=wrap;html=1;fixedSize=1;fillColor=#76608a;strokeColor=#432D57;fontColor=#ffffff;rotation=0;direction=east;flipH=1;" vertex="1" parent="1">
                    <mxGeometry x="360" y="440" width="130" height="80" as="geometry"/>
                </mxCell>
                <mxCell id="5" value="COMPARTIR CONOCIMIENTO" style="shape=step;perimeter=stepPerimeter;whiteSpace=wrap;html=1;fixedSize=1;fillColor=#008a00;strokeColor=#005700;rotation=-90;fontColor=#ffffff;" vertex="1" parent="1">
                    <mxGeometry x="170" y="270" width="140" height="80" as="geometry"/>
                </mxCell>
                <mxCell id="6" value="SELECCIONAR CONOCIMIENTO" style="shape=step;perimeter=stepPerimeter;whiteSpace=wrap;html=1;fixedSize=1;fillColor=#0050ef;strokeColor=#001DBC;fontColor=#ffffff;rotation=90;" vertex="1" parent="1">
                    <mxGeometry x="530" y="260" width="140" height="80" as="geometry"/>
                </mxCell>
                <mxCell id="7" value="ORGANIZAR CONOCIMIENTO" style="shape=step;perimeter=stepPerimeter;whiteSpace=wrap;html=1;fixedSize=1;fillColor=#6d8764;strokeColor=#3A5431;fontColor=#ffffff;rotation=-45;flipH=1;" vertex="1" parent="1">
                    <mxGeometry x="528.54" y="420" width="130" height="80" as="geometry"/>
                </mxCell>
                <mxCell id="8" value="CREAR&amp;nbsp;&lt;br&gt;CONOCIMIENTO" style="shape=step;perimeter=stepPerimeter;whiteSpace=wrap;html=1;fixedSize=1;fillColor=#60a917;strokeColor=#2D7600;fontColor=#ffffff;rotation=55;" vertex="1" parent="1">
                    <mxGeometry x="512.13" y="115.9" width="130" height="80" as="geometry"/>
                </mxCell>
                <mxCell id="9" value="USAR CONOCIMIENTO" style="shape=step;perimeter=stepPerimeter;whiteSpace=wrap;html=1;fixedSize=1;fillColor=#1ba1e2;strokeColor=#006EAF;fontColor=#ffffff;rotation=-45;" vertex="1" parent="1">
                    <mxGeometry x="198.54" y="106.46" width="130" height="80" as="geometry"/>
                </mxCell>
                <mxCell id="10" value="FILTRAR CONOCIMIENTO" style="shape=step;perimeter=stepPerimeter;whiteSpace=wrap;html=1;fixedSize=1;fillColor=#a0522d;strokeColor=#6D1F00;fontColor=#ffffff;rotation=50;flipH=1;" vertex="1" parent="1">
                    <mxGeometry x="195" y="420" width="130" height="80" as="geometry"/>
                </mxCell>
            </root>
        </mxGraphModel>
    </diagram>
</mxfile>